<?xml version="1.0" encoding="UTF-8"?>
<!-- Generator: visioncortex VTracer 0.6.4 -->
<svg version="1.1" xmlns="http://www.w3.org/2000/svg" width="96" height="96">
<path d="M0 0 C3 0.125 3 0.125 4 1.125 C3.90982004 3.31550021 3.75333792 5.503466 3.5625 7.6875 C3.46066406 8.88503906 3.35882813 10.08257812 3.25390625 11.31640625 C3.17011719 12.24324219 3.08632813 13.17007812 3 14.125 C3.76143311 14.09881592 4.52286621 14.07263184 5.30737305 14.0456543 C8.76720435 13.94152985 12.22670585 13.87662271 15.6875 13.8125 C17.48477539 13.7496582 17.48477539 13.7496582 19.31835938 13.68554688 C28.11100278 13.56308666 28.11100278 13.56308666 32.3125 16.21875 C34.3656431 19.75471867 34.51765976 21.87533668 34.3125 25.9375 C34.26738281 27.09894531 34.22226563 28.26039062 34.17578125 29.45703125 C34.11777344 30.33746094 34.05976562 31.21789062 34 32.125 C35.2065625 32.0940625 35.2065625 32.0940625 36.4375 32.0625 C39 32.125 39 32.125 40 33.125 C40.09909302 35.45660055 40.12970504 37.79129942 40.125 40.125 C40.12886719 42.043125 40.12886719 42.043125 40.1328125 44 C40 47.125 40 47.125 39 48.125 C37.33382885 48.16563832 35.66611905 48.167721 34 48.125 C34.05800781 49.00542969 34.11601563 49.88585938 34.17578125 50.79296875 C34.24345703 52.53513672 34.24345703 52.53513672 34.3125 54.3125 C34.37050781 55.46105469 34.42851563 56.60960937 34.48828125 57.79296875 C34 61.125 34 61.125 32.14135742 63.81762695 C27.55300141 67.18784166 23.78427402 66.62117473 18.25 66.375 C16.09248171 66.34270926 13.93492607 66.31284013 11.77734375 66.28515625 C8.3966253 66.21522384 5.01992469 66.12579073 1.64111328 65.99169922 C-12.14472486 64.99907904 -12.14472486 64.99907904 -24.42578125 70.0859375 C-27.69412603 73.14377728 -30.35583217 76.52432449 -33 80.125 C-33.33 80.125 -33.66 80.125 -34 80.125 C-34 69.565 -34 59.005 -34 48.125 C-35.65 48.125 -37.3 48.125 -39 48.125 C-40 47.125 -40 47.125 -40.1328125 44 C-40.13023438 42.72125 -40.12765625 41.4425 -40.125 40.125 C-40.12757812 38.84625 -40.13015625 37.5675 -40.1328125 36.25 C-40 33.125 -40 33.125 -39 32.125 C-37.33382885 32.08436168 -35.66611905 32.082279 -34 32.125 C-34.05800781 31.24457031 -34.11601563 30.36414063 -34.17578125 29.45703125 C-34.22089844 28.29558594 -34.26601563 27.13414063 -34.3125 25.9375 C-34.39951172 24.21466797 -34.39951172 24.21466797 -34.48828125 22.45703125 C-34 19.125 -34 19.125 -32.34375 16.21875 C-26.9384821 12.83414299 -21.41535264 13.60307919 -15.1875 13.8125 C-13.92228516 13.83505859 -12.65707031 13.85761719 -11.35351562 13.88085938 C-8.23447381 13.93970922 -5.11784098 14.0218863 -2 14.125 C-2.48919922 12.49691406 -2.48919922 12.49691406 -2.98828125 10.8359375 C-3.93472497 7.36442579 -4.25486961 4.69317447 -4 1.125 C-3 0.125 -3 0.125 0 0 Z " fill="#2196F3" transform="translate(48,7.875)"/>
<path d="M0 0 C1.65 0 3.3 0 5 0 C6 1 6 1 6.1328125 4.125 C6.12894531 6.043125 6.12894531 6.043125 6.125 8 C6.12757812 9.27875 6.13015625 10.5575 6.1328125 11.875 C6 15 6 15 5 16 C3.35 16 1.7 16 0 16 C0 10.72 0 5.44 0 0 Z " fill="#1473BF" transform="translate(82,40)"/>
<path d="M0 0 C1.65 0 3.3 0 5 0 C5 5.28 5 10.56 5 16 C3.35 16 1.7 16 0 16 C-1 15 -1 15 -1.1328125 11.875 C-1.13023437 10.59625 -1.12765625 9.3175 -1.125 8 C-1.12757813 6.72125 -1.13015625 5.4425 -1.1328125 4.125 C-1 1 -1 1 0 0 Z " fill="#1473BF" transform="translate(9,40)"/>
<path d="M0 0 C3 0.125 3 0.125 4 1.125 C3.90982004 3.31550021 3.75333792 5.503466 3.5625 7.6875 C3.46066406 8.88503906 3.35882813 10.08257812 3.25390625 11.31640625 C3.17011719 12.24324219 3.08632813 13.17007812 3 14.125 C1.35 14.125 -0.3 14.125 -2 14.125 C-3.44209192 9.61846274 -4.34223148 5.91624078 -4 1.125 C-3 0.125 -3 0.125 0 0 Z " fill="#1D87F3" transform="translate(48,7.875)"/>
<path d="M0 0 C1.32278481 5.41139241 1.32278481 5.41139241 -0.0625 7.9375 C-2.91093248 9.49954362 -4.93504903 8.74921024 -8 8 C-9.32278481 2.58860759 -9.32278481 2.58860759 -7.9375 0.0625 C-5.08906752 -1.49954362 -3.06495097 -0.74921024 0 0 Z " fill="#F2F9FE" transform="translate(65,39)"/>
<path d="M0 0 C1.32278481 5.41139241 1.32278481 5.41139241 -0.0625 7.9375 C-2.91093248 9.49954362 -4.93504903 8.74921024 -8 8 C-9.32278481 2.58860759 -9.32278481 2.58860759 -7.9375 0.0625 C-5.08906752 -1.49954362 -3.06495097 -0.74921024 0 0 Z " fill="#F2F9FE" transform="translate(39,39)"/>
<path d="M0 0 C5.28 0 10.56 0 16 0 C13 5 13 5 11 6 C8.1875 6.375 8.1875 6.375 5 6 C2.125 3.5625 2.125 3.5625 0 1 C0 0.67 0 0.34 0 0 Z " fill="#F3F9FE" transform="translate(40,56)"/>
<path d="M0 0 C1.32 0 2.64 0 4 0 C4 1.98 4 3.96 4 6 C2.68 6 1.36 6 0 6 C0 4.02 0 2.04 0 0 Z " fill="#1574C0" transform="translate(46,16)"/>
</svg>
